<svg xmlns="http://www.w3.org/2000/svg" xmlns:xlink="http://www.w3.org/1999/xlink" contentStyleType="text/css" data-diagram-type="DESCRIPTION" height="162px" preserveAspectRatio="none" style="width:460px;height:162px;" version="1.1" viewBox="0 0 460 162" width="460px" zoomAndPan="magnify"><defs/><g><g class="cluster" data-entity="..6" data-source-line="31" data-uid="ent0007" id="cluster_..6"><rect fill="none" height="82" rx="5" ry="5" style="stroke:#C6A0F6;stroke-width:1;" width="70.32" x="384.29" y="74.55"/></g><!--entity b1--><g class="entity" data-entity="b1" data-source-line="26" data-uid="ent0002" id="entity_b1"><rect fill="#313139" height="49.1016" rx="5" ry="5" style="stroke:#C6A0F6;stroke-width:0.5;" width="38.3228" x="7" y="91"/><text fill="#C6A0F6" font-family="sans-serif" font-size="25" font-weight="bold" lengthAdjust="spacing" textLength="18.3228" x="17" y="124.2056">P</text></g><!--entity b5--><g class="entity" data-entity="b5" data-source-line="32" data-uid="ent0008" id="entity_b5"><rect fill="#313139" height="49.1016" rx="5" ry="5" style="stroke:#C6A0F6;stroke-width:0.5;" width="38.3228" x="400.29" y="91"/><text fill="#C6A0F6" font-family="sans-serif" font-size="25" font-weight="bold" lengthAdjust="spacing" textLength="18.3228" x="410.29" y="124.2056">P</text></g><!--entity a2--><g class="entity" data-entity="a2" data-source-line="42" data-uid="ent0013" id="entity_a2"><rect fill="#313139" height="49.1016" rx="5" ry="5" style="stroke:#C6A0F6;stroke-width:0.5;" width="38.3228" x="7" y="7"/><text fill="#C6A0F6" font-family="sans-serif" font-size="25" font-weight="bold" lengthAdjust="spacing" textLength="18.3228" x="17" y="40.2056">P</text></g><!--entity a3--><g class="entity" data-entity="a3" data-source-line="44" data-uid="ent0014" id="entity_a3"><rect fill="#313139" height="49.1016" rx="5" ry="5" style="stroke:#C6A0F6;stroke-width:0.5;" width="38.3228" x="105.32" y="7"/><text fill="#C6A0F6" font-family="sans-serif" font-size="25" font-weight="bold" lengthAdjust="spacing" textLength="18.3228" x="115.32" y="40.2056">P</text></g><!--entity a4--><g class="entity" data-entity="a4" data-source-line="46" data-uid="ent0015" id="entity_a4"><rect fill="#313139" height="49.1016" rx="5" ry="5" style="stroke:#C6A0F6;stroke-width:0.5;" width="38.3228" x="203.65" y="7"/><text fill="#C6A0F6" font-family="sans-serif" font-size="25" font-weight="bold" lengthAdjust="spacing" textLength="18.3228" x="213.65" y="40.2056">P</text></g><!--entity a5--><g class="entity" data-entity="a5" data-source-line="48" data-uid="ent0016" id="entity_a5"><rect fill="#313139" height="49.1016" rx="5" ry="5" style="stroke:#C6A0F6;stroke-width:0.5;" width="38.3228" x="301.97" y="7"/><text fill="#C6A0F6" font-family="sans-serif" font-size="25" font-weight="bold" lengthAdjust="spacing" textLength="18.3228" x="311.97" y="40.2056">P</text></g><!--entity b2--><g class="entity" data-entity="b2" data-source-line="28" data-uid="ent0003" id="entity_b2"><rect fill="#363A4F" height="43.2813" rx="15" ry="15" style="stroke:#8AADF4;stroke-width:0.5;" width="35.2441" x="106.86" y="93.91"/><text fill="#7DC4E4" font-family="sans-serif" font-size="20" font-weight="bold" lengthAdjust="spacing" textLength="15.2441" x="116.86" y="122.4745">B</text></g><!--entity b3--><g class="entity" data-entity="b3" data-source-line="29" data-uid="ent0004" id="entity_b3"><rect fill="#363A4F" height="43.2813" rx="15" ry="15" style="stroke:#8AADF4;stroke-width:0.5;" width="35.2441" x="205.18" y="93.91"/><text fill="#7DC4E4" font-family="sans-serif" font-size="20" font-weight="bold" lengthAdjust="spacing" textLength="15.2441" x="215.18" y="122.4745">B</text></g><!--entity b4--><g class="entity" data-entity="b4" data-source-line="30" data-uid="ent0005" id="entity_b4"><rect fill="#363A4F" height="43.2813" rx="15" ry="15" style="stroke:#8AADF4;stroke-width:0.5;" width="35.2441" x="303.51" y="93.91"/><text fill="#7DC4E4" font-family="sans-serif" font-size="20" font-weight="bold" lengthAdjust="spacing" textLength="15.2441" x="313.51" y="122.4745">B</text></g><!--entity a6--><g class="entity" data-entity="a6" data-source-line="50" data-uid="ent0017" id="entity_a6"><ellipse cx="419.449" cy="31.5452" fill="#ED8796" rx="18.019" ry="15.0152" style="stroke:#F84C66;stroke-width:0.5;"/><text fill="#24273A" font-family="sans-serif" font-size="20" font-weight="bold" lengthAdjust="spacing" textLength="7.4414" x="415.7282" y="39.6858">I</text></g><!--link b1 to b2--><g class="link" data-entity-1="b1" data-entity-2="b2" data-link-type="dependency" data-source-line="36" data-uid="lnk9" id="link_b1_b2"><path d="M45.73,115.55 C63.34,115.55 83.55,115.55 100.58,115.55" fill="none" id="b1-to-b2" style="stroke:#F5BDE6;stroke-width:2;"/><polygon fill="#F5BDE6" points="106.58,115.55,97.58,111.55,101.58,115.55,97.58,119.55,106.58,115.55" style="stroke:#F5BDE6;stroke-width:2;"/></g><!--link b2 to b3--><g class="link" data-entity-1="b2" data-entity-2="b3" data-link-type="dependency" data-source-line="37" data-uid="lnk10" id="link_b2_b3"><path d="M142.26,115.55 C159.83,115.55 181.28,115.55 198.9,115.55" fill="none" id="b2-to-b3" style="stroke:#F5BDE6;stroke-width:2;"/><polygon fill="#F5BDE6" points="204.9,115.55,195.9,111.55,199.9,115.55,195.9,119.55,204.9,115.55" style="stroke:#F5BDE6;stroke-width:2;"/></g><!--link b3 to b4--><g class="link" data-entity-1="b3" data-entity-2="b4" data-link-type="dependency" data-source-line="38" data-uid="lnk11" id="link_b3_b4"><path d="M240.58,115.55 C258.16,115.55 279.6,115.55 297.22,115.55" fill="none" id="b3-to-b4" style="stroke:#F5BDE6;stroke-width:2;"/><polygon fill="#F5BDE6" points="303.22,115.55,294.22,111.55,298.22,115.55,294.22,119.55,303.22,115.55" style="stroke:#F5BDE6;stroke-width:2;"/></g><!--link b4 to b5--><g class="link" data-entity-1="b4" data-entity-2="b5" data-link-type="dependency" data-source-line="39" data-uid="lnk12" id="link_b4_b5"><path d="M338.91,115.55 C355.94,115.55 376.25,115.55 393.89,115.55" fill="none" id="b4-to-b5" style="stroke:#F5BDE6;stroke-width:2;"/><polygon fill="#F5BDE6" points="399.89,115.55,390.89,111.55,394.89,115.55,390.89,119.55,399.89,115.55" style="stroke:#F5BDE6;stroke-width:2;"/></g><!--link a2 to a3--><g class="link" data-entity-1="a2" data-entity-2="a3" data-link-type="dependency" data-source-line="52" data-uid="lnk18" id="link_a2_a3"><path d="M45.73,31.55 C62.79,31.55 81.93,31.55 98.97,31.55" fill="none" id="a2-to-a3" style="stroke:#F5BDE6;stroke-width:2;"/><polygon fill="#F5BDE6" points="104.97,31.55,95.97,27.55,99.97,31.55,95.97,35.55,104.97,31.55" style="stroke:#F5BDE6;stroke-width:2;"/></g><!--link a3 to a4--><g class="link" data-entity-1="a3" data-entity-2="a4" data-link-type="dependency" data-source-line="53" data-uid="lnk19" id="link_a3_a4"><path d="M144.06,31.55 C161.11,31.55 180.25,31.55 197.29,31.55" fill="none" id="a3-to-a4" style="stroke:#F5BDE6;stroke-width:2;"/><polygon fill="#F5BDE6" points="203.29,31.55,194.29,27.55,198.29,31.55,194.29,35.55,203.29,31.55" style="stroke:#F5BDE6;stroke-width:2;"/></g><!--link a4 to a5--><g class="link" data-entity-1="a4" data-entity-2="a5" data-link-type="dependency" data-source-line="54" data-uid="lnk20" id="link_a4_a5"><path d="M242.38,31.55 C259.44,31.55 278.58,31.55 295.61,31.55" fill="none" id="a4-to-a5" style="stroke:#F5BDE6;stroke-width:2;"/><polygon fill="#F5BDE6" points="301.61,31.55,292.61,27.55,296.61,31.55,292.61,35.55,301.61,31.55" style="stroke:#F5BDE6;stroke-width:2;"/></g><!--link a5 to a6--><g class="link" data-entity-1="a5" data-entity-2="a6" data-link-type="dependency" data-source-line="55" data-uid="lnk21" id="link_a5_a6"><path d="M340.7,31.55 C358.2,31.55 378.19,31.55 395.23,31.55" fill="none" id="a5-to-a6" style="stroke:#F5BDE6;stroke-width:2;"/><polygon fill="#F5BDE6" points="401.23,31.55,392.23,27.55,396.23,31.55,392.23,35.55,401.23,31.55" style="stroke:#F5BDE6;stroke-width:2;"/></g><!--SRC=[VP8_JyCm4CLtVmfBB31KQcF7QHU68Y4XCI10Oa0C5_z9hQPsPRj2KFMxaoOXkAdBThxtk_DxSVnQcoqusE2TbnoyN5edfBkpjNNuIiqfPqmfvCVOlJMXXpAQ5GJEaINmTUNipeWUb69UB5XwrqlugYKkRIqkwFfRucmQYTnkjjR8tr4dUG1JrJA5d8IQ0mX5KrWKgX2SoejGqktVRUFWX16W2aTiEKA20-CRgPcEg1vmHZfCukn3s9DWdC5KiHGM1ViVIWOx9Tg7o5FoSsHtDaMrL047YvskLW4BVUIqDHU_QV_2aGxEsS_VNp4lXMHZyNMb-Tf8xt4MIL9KSMILmw9G8_rH6_ccHLWrasY8W9ymU5pEy1uTqFloeprbGqM6YaOp-xFvl9q_8DHicankZolAhAi8AabNKLJIhihHcGN8sXNZBabsQRBRcRX-k6bF327eB011q5a0Yg2p03bg-BPYFm00]--></g></svg>